<svg aria-hidden="true" style="position: absolute; width: 0; height: 0; overflow: hidden;" version="1.1" xmlns="http://www.w3.org/2000/svg"
    xmlns:xlink="http://www.w3.org/1999/xlink">
    <defs>
        <symbol id="icon-trash" viewBox="0 0 32 32">
            <path stroke-linejoin="round" stroke-linecap="round" stroke-miterlimit="4" stroke-width="2.6667"
                d="M21.333 8v-1.067c0-1.493 0-2.24-0.291-2.811-0.256-0.502-0.664-0.91-1.165-1.165-0.57-0.291-1.317-0.291-2.811-0.291h-2.133c-1.493 0-2.24 0-2.811 0.291-0.502 0.256-0.91 0.664-1.165 1.165-0.291 0.57-0.291 1.317-0.291 2.811v1.067M13.333 15.333v6.667M18.667 15.333v6.667M4 8h24M25.333 8v14.933c0 2.24 0 3.36-0.436 4.216-0.384 0.753-0.996 1.364-1.748 1.748-0.856 0.436-1.976 0.436-4.216 0.436h-5.867c-2.24 0-3.36 0-4.216-0.436-0.753-0.384-1.365-0.996-1.748-1.748-0.436-0.856-0.436-1.976-0.436-4.216v-14.933">
            </path>
        </symbol>
        <symbol id="icon-close" viewBox="0 0 32 32">
            <path stroke-linejoin="round" stroke-linecap="round" stroke-miterlimit="4" stroke-width="2" d="M24 8l-16 16"></path>
            <path stroke-linejoin="round" stroke-linecap="round" stroke-miterlimit="4" stroke-width="2" d="M8 8l16 16"></path>
        </symbol>
        <symbol id="icon-arrow-down" viewBox="0 0 32 32">
            <path fill="none" stroke-linejoin="round" stroke-linecap="round" stroke-miterlimit="4" stroke-width="2.6667"
                d="M7.999 12l8 8 8-8"></path>
        </symbol>
        <symbol id="icon-star" viewBox="0 0 33 32">
            <path
                d="M3.705 22.472c7.162-2.214 14.997 0.181 19.696 6.022-2.214-7.162 0.181-14.997 6.022-19.696-7.162 2.214-14.997-0.181-19.696-6.022 2.214 7.162-0.181 14.997-6.022 19.696zM1.060 23.521c8.045-4.655 11.127-14.735 7.060-23.093l0.558-0.296c4.655 8.045 14.735 11.127 23.093 7.060l0.297 0.558c-8.045 4.655-11.127 14.735-7.060 23.093l-0.558 0.296c-4.655-8.045-14.735-11.127-23.093-7.060l-0.296-0.558z">
            </path>
            <path
                d="M24.089 25.41c0.43 1.527 0.652 2.783 0.665 3.693 0.006 0.456-0.041 0.79-0.118 1.016-0.075 0.222-0.161 0.291-0.205 0.315s-0.149 0.056-0.375-0.006c-0.231-0.063-0.534-0.211-0.908-0.471-0.747-0.519-1.664-1.405-2.689-2.616-2.045-2.414-4.435-6.014-6.675-10.226s-3.887-8.208-4.745-11.253c-0.43-1.528-0.652-2.783-0.665-3.692-0.006-0.456 0.041-0.79 0.117-1.016 0.075-0.222 0.161-0.291 0.205-0.315s0.149-0.056 0.376 0.006c0.231 0.063 0.534 0.211 0.908 0.471 0.747 0.519 1.664 1.405 2.689 2.616 2.045 2.414 4.435 6.014 6.675 10.226s3.887 8.208 4.745 11.253zM24.729 30.991c1.844-0.98-0.317-8.65-4.827-17.131s-9.659-14.561-11.503-13.581 0.317 8.65 4.827 17.131c4.509 8.481 9.659 14.561 11.503 13.581z">
            </path>
            <path
                d="M6.789 23.161c-1.528 0.43-2.783 0.652-3.692 0.665-0.456 0.006-0.79-0.041-1.016-0.117-0.222-0.075-0.291-0.161-0.315-0.205s-0.056-0.149 0.006-0.375c0.063-0.231 0.211-0.534 0.471-0.908 0.519-0.747 1.405-1.663 2.616-2.689 2.414-2.045 6.014-4.435 10.226-6.675s8.208-3.887 11.253-4.745c1.527-0.43 2.783-0.652 3.692-0.665 0.456-0.006 0.79 0.041 1.016 0.117 0.222 0.075 0.291 0.161 0.315 0.205s0.056 0.149-0.006 0.376c-0.063 0.231-0.211 0.534-0.471 0.908-0.519 0.747-1.405 1.664-2.616 2.689-2.414 2.045-6.014 4.435-10.227 6.675s-8.208 3.887-11.253 4.745zM1.208 23.8c0.98 1.844 8.65-0.317 17.131-4.827s14.561-9.659 13.581-11.503c-0.98-1.844-8.65 0.317-17.131 4.827s-14.561 9.659-13.581 11.503z">
            </path>
        </symbol>
        <symbol id="icon-circle" viewBox="0 0 30 32">
            <path
                d="M29.538 14.94c0 8.157-6.612 14.769-14.769 14.769s-14.769-6.612-14.769-14.769c0-8.157 6.612-14.769 14.769-14.769s14.769 6.612 14.769 14.769z">
            </path>
        </symbol>
        <symbol id="icon-youtube" viewBox="0 0 43 32">
            <path
                d="M33.416 1.333c-1.995-0.117-6.101-0.235-12.32-0.235h-0.821c-5.984 0-9.973 0.117-11.968 0.352-2.699 0.235-4.576 0.939-5.632 1.877-0.939 0.821-1.643 2.347-1.877 4.341-0.117 1.291-0.235 3.989-0.235 8.096v0.587c0 3.872 0.117 6.571 0.352 7.861 0.352 1.877 0.939 3.285 2.112 4.107 1.173 0.939 3.168 1.525 5.984 1.76 1.995 0.117 6.101 0.235 12.32 0.235h0.821c5.984 0 9.973-0.117 11.968-0.352 2.699-0.235 4.576-0.939 5.632-1.877 0.939-0.821 1.642-2.347 1.877-4.341 0.117-1.291 0.235-3.989 0.235-8.096v-0.587c0-3.872-0.117-6.571-0.352-7.861-0.352-1.877-0.939-3.285-2.112-4.107-1.173-0.939-3.168-1.525-5.984-1.76zM28.84 15.765l-12.907 7.744v-15.488l12.907 7.744z">
            </path>
        </symbol>
        <symbol id="icon-instagram" viewBox="0 0 32 32">
            <path
                d="M23.982 6.229c-0.354 0-0.701 0.105-0.996 0.302s-0.524 0.477-0.66 0.804-0.171 0.688-0.102 1.035c0.069 0.348 0.24 0.667 0.49 0.918s0.57 0.421 0.918 0.49c0.348 0.069 0.708 0.034 1.035-0.102s0.607-0.365 0.804-0.66c0.197-0.295 0.302-0.641 0.302-0.996 0-0.475-0.189-0.931-0.525-1.267s-0.792-0.525-1.267-0.525zM30.851 9.843c-0.029-1.239-0.261-2.465-0.687-3.629-0.38-0.996-0.971-1.898-1.732-2.643-0.739-0.765-1.643-1.353-2.643-1.717-1.161-0.439-2.388-0.676-3.629-0.702-1.583-0.090-2.091-0.090-6.152-0.090s-4.57 0-6.153 0.090c-1.241 0.026-2.468 0.263-3.629 0.702-0.998 0.368-1.901 0.955-2.643 1.717-0.765 0.739-1.353 1.643-1.717 2.643-0.439 1.161-0.676 2.388-0.702 3.629-0.090 1.583-0.090 2.091-0.090 6.153s0 4.57 0.090 6.153c0.026 1.241 0.263 2.468 0.702 3.629 0.365 1 0.952 1.904 1.717 2.643 0.742 0.762 1.645 1.349 2.643 1.717 1.161 0.439 2.388 0.676 3.629 0.702 1.583 0.090 2.091 0.090 6.153 0.090s4.57 0 6.152-0.090c1.241-0.026 2.468-0.263 3.629-0.702 1-0.365 1.904-0.952 2.643-1.717 0.765-0.743 1.357-1.645 1.732-2.643 0.426-1.164 0.658-2.39 0.687-3.629 0-1.583 0.090-2.091 0.090-6.153s0-4.57-0.090-6.153zM28.163 21.969c-0.011 0.948-0.182 1.887-0.508 2.778-0.238 0.65-0.621 1.237-1.12 1.717-0.484 0.493-1.070 0.876-1.717 1.12-0.89 0.325-1.83 0.497-2.778 0.508-1.493 0.075-2.046 0.090-5.973 0.090s-4.48 0-5.973-0.090c-0.984 0.018-1.964-0.133-2.897-0.448-0.619-0.257-1.178-0.638-1.643-1.12-0.496-0.48-0.874-1.067-1.105-1.717-0.365-0.903-0.567-1.864-0.597-2.837 0-1.493-0.090-2.046-0.090-5.973s0-4.48 0.090-5.973c0.007-0.969 0.184-1.929 0.523-2.837 0.263-0.63 0.666-1.192 1.18-1.643 0.454-0.513 1.014-0.921 1.643-1.195 0.91-0.328 1.87-0.5 2.837-0.508 1.493 0 2.046-0.090 5.973-0.090s4.48 0 5.973 0.090c0.948 0.011 1.887 0.183 2.778 0.508 0.679 0.252 1.288 0.661 1.777 1.195 0.489 0.459 0.872 1.020 1.12 1.643 0.332 0.909 0.504 1.869 0.508 2.837 0.075 1.493 0.090 2.046 0.090 5.973s-0.015 4.48-0.090 5.973zM16.008 8.335c-1.515 0.003-2.994 0.455-4.252 1.298s-2.237 2.041-2.815 3.441c-0.578 1.4-0.727 2.94-0.43 4.425s1.028 2.849 2.1 3.918c1.072 1.070 2.437 1.798 3.923 2.093s3.025 0.142 4.424-0.439c1.399-0.58 2.595-1.562 3.436-2.822s1.29-2.74 1.29-4.255c0.002-1.008-0.195-2.006-0.58-2.937s-0.951-1.777-1.664-2.489c-0.713-0.712-1.56-1.276-2.492-1.659s-1.931-0.579-2.939-0.575zM16.008 20.969c-0.984 0-1.945-0.292-2.763-0.838s-1.455-1.323-1.832-2.232-0.475-1.909-0.283-2.873c0.192-0.965 0.665-1.851 1.361-2.546s1.582-1.169 2.546-1.361c0.965-0.192 1.964-0.093 2.873 0.283s1.685 1.014 2.232 1.832c0.547 0.818 0.838 1.779 0.838 2.763 0 0.653-0.129 1.3-0.379 1.903s-0.616 1.152-1.078 1.613-1.010 0.828-1.613 1.078c-0.603 0.25-1.25 0.378-1.903 0.378z">
            </path>
        </symbol>
        <symbol id="icon-facebook" viewBox="0 0 18 32">
            <path
                d="M14.851 5.602h2.924v-4.947c-1.416-0.147-2.839-0.22-4.262-0.218-4.231 0-7.124 2.582-7.124 7.311v4.076h-4.776v5.538h4.776v14.187h5.724v-14.187h4.76l0.716-5.538h-5.476v-3.531c0-1.633 0.436-2.691 2.738-2.691z">
            </path>
        </symbol>
        <symbol id="icon-cocktail" viewBox="0 0 32 32">
            <path
                d="M28.355 3.060c-0.062-0.039-0.122-0.069-0.183-0.099-0.742-0.39-1.568-0.592-2.406-0.59h-0.009c-0.917 0.001-1.817 0.242-2.612 0.699s-1.457 1.113-1.919 1.904l-0.014 0.025c-0.375 0.646-0.602 1.367-0.665 2.111l-0.001 0.019h-10.971l-1.227-2.959c-0.276-0.67-0.781-1.219-1.425-1.55s-1.385-0.421-2.090-0.255l0.021-0.005-3.71 0.843 0.23 1.013 3.71-0.843c0.462-0.105 0.945-0.044 1.366 0.172s0.752 0.574 0.935 1.011l0.005 0.014 1.065 2.56h-6.967l11.649 11.649v8.529c-2.705 0.192-4.571 1.088-4.571 2.2v0.207h11.227v-0.207c0-1.111-1.87-2.011-4.571-2.2v-8.529l7.181-7.181c0.225 0.191 0.477 0.368 0.742 0.523l0.025 0.014c1.201 0.683 2.623 0.863 3.957 0.5s2.469-1.238 3.158-2.435c0.69-1.197 0.878-2.618 0.523-3.954s-1.224-2.476-2.417-3.172l-0.025-0.014-0.008-0.002zM29.497 7.068l-2.85 0.008 1.418-2.469c0.775 0.598 1.287 1.472 1.43 2.44l0.002 0.021zM27.168 4.087l-1.418 2.475-1.433-2.461c0.458-0.189 0.949-0.285 1.445-0.283 0.506 0 0.99 0.098 1.432 0.278l-0.025-0.009zM22.47 5.72c0.249-0.433 0.567-0.798 0.943-1.091l0.008-0.006 1.433 2.461-2.843 0.008c0.064-0.513 0.226-0.977 0.469-1.39l-0.009 0.017v0.001zM4.981 8.578h4.070l0.56 1.357h-3.272l-1.358-1.357zM22.002 9.936h-0.929v0.007h-10.346l-0.56-1.357h13.182l-1.346 1.35zM24.34 11.108l1.418-2.475 1.433 2.461c-0.426 0.181-0.922 0.286-1.442 0.286-0.507 0-0.992-0.099-1.434-0.281l0.025 0.010zM29.038 9.483c-0.241 0.421-0.56 0.792-0.942 1.091l-0.008 0.006-1.433-2.461 2.843-0.007c-0.066 0.488-0.225 0.96-0.47 1.387l0.010-0.018-0.001 0.001z">
            </path>
        </symbol>
        <symbol id="icon-heart" viewBox="0 0 32 32">
            <path stroke-linejoin="round" stroke-linecap="round" stroke-miterlimit="4" stroke-width="2.6667"
                d="M27.788 6.146c-0.681-0.681-1.49-1.222-2.38-1.591s-1.844-0.559-2.807-0.559c-0.963 0-1.917 0.19-2.807 0.559s-1.699 0.909-2.38 1.591l-1.413 1.413-1.413-1.413c-1.376-1.376-3.241-2.148-5.187-2.148s-3.811 0.773-5.187 2.148c-1.376 1.376-2.148 3.241-2.148 5.187s0.773 3.811 2.148 5.187l11.787 11.787 11.787-11.787c0.681-0.681 1.222-1.49 1.591-2.38s0.558-1.844 0.558-2.807-0.19-1.917-0.558-2.807c-0.369-0.89-0.909-1.699-1.591-2.38z">
            </path>
        </symbol>
        <symbol id="icon-search" viewBox="0 0 32 32">
            <path
                d="M29.092 31.514l-6.85-6.862c-1.077 0.935-2.334 1.663-3.77 2.185s-2.962 0.782-4.578 0.782c-3.877 0-7.163-1.349-9.855-4.046s-4.039-5.952-4.039-9.764c0-3.812 1.346-7.067 4.039-9.764s5.96-4.046 9.801-4.046c3.806 0 7.046 1.349 9.721 4.046s4.012 5.952 4.012 9.764c0 1.546-0.251 3.039-0.754 4.477s-1.257 2.787-2.262 4.046l6.958 6.862c0.323 0.288 0.485 0.656 0.485 1.106s-0.18 0.854-0.539 1.214c-0.323 0.324-0.718 0.486-1.185 0.486s-0.862-0.162-1.185-0.486zM13.84 24.383c2.908 0 5.385-1.034 7.432-3.102s3.070-4.558 3.070-7.471-1.023-5.403-3.070-7.471c-2.046-2.068-4.524-3.102-7.432-3.102-2.944 0-5.448 1.034-7.513 3.102s-3.097 4.558-3.097 7.471c0 2.913 1.032 5.403 3.097 7.471s4.569 3.102 7.513 3.102z">
            </path>
        </symbol>
        <symbol id="icon-burger" viewBox="0 0 32 32">
            <path stroke-linejoin="round" stroke-linecap="round" stroke-miterlimit="4" stroke-width="2" d="M28 13.334h-24"></path>
            <path stroke-linejoin="round" stroke-linecap="round" stroke-miterlimit="4" stroke-width="2" d="M28 8h-24"></path>
            <path stroke-linejoin="round" stroke-linecap="round" stroke-miterlimit="4" stroke-width="2" d="M28 18.666h-24"></path>
            <path stroke-linejoin="round" stroke-linecap="round" stroke-miterlimit="4" stroke-width="2" d="M28 24h-24"></path>
        </symbol>
    </defs>
</svg>